<?xml version="1.0" encoding="utf-8"?>
<!-- Generator: Adobe Illustrator 16.0.0, SVG Export Plug-In . SVG Version: 6.00 Build 0)  -->
<!DOCTYPE svg PUBLIC "-//W3C//DTD SVG 1.1//EN" "http://www.w3.org/Graphics/SVG/1.1/DTD/svg11.dtd">
<svg version="1.1" id="Layer_1" xmlns="http://www.w3.org/2000/svg" xmlns:xlink="http://www.w3.org/1999/xlink" x="0px" y="0px"
	 width="356.109px" height="244.881px" viewBox="0 0 356.109 244.881" enable-background="new 0 0 356.109 244.881"
	 xml:space="preserve"
	 fill="#f44336">
<g>
	<path fill-rule="evenodd" clip-rule="evenodd" d="M178.49,244.881c-10.011-5.813-20.14-11.557-30.134-17.527
		c-19.204-11.473-37.083-24.344-46.449-46.53c-2.047,2.688-3.671,4.821-5.89,7.735c-2.442-16.258-2.679-31.178,5.963-46.271
		c4.809,13.508,12.312,23.937,22.514,33.018c-4.082-0.696-8.164-1.392-13.297-2.266c8.66,12.546,18.015,23.182,31.095,29.263
		c10.587,4.923,22.82-2.763,23.66-14.671c1.124-15.943,1.186-31.962,1.665-47.95c0.094-3.108,0.014-6.221,0.014-9.873
		C111.283,129.844,55.523,132.398,0,139.875c42.647-16.372,87.35-22.061,132.55-24.705c98.96-5.787,189.217,8.896,223.557,25.108
		c-18.176-1.992-36.463-4.357-54.819-5.907c-18.582-1.569-37.22-2.767-55.859-3.326c-18.598-0.558-37.226-0.122-56.299-0.122
		c0,3.142-0.097,6.912,0.017,10.674c0.461,15.32,0.514,30.673,1.63,45.948c0.974,13.332,15.381,20.425,26.755,13.333
		c5.878-3.664,11.198-8.385,16.233-13.191c4.276-4.081,7.78-8.971,10.947-14.494c-3.948,0.717-7.896,1.434-11.843,2.15
		c9.322-9.352,17.41-19.195,21.902-33.348c8.919,15.176,8.798,30.088,6.305,46.489c-2.291-2.933-3.952-5.06-5.907-7.563
		c-10.481,24.296-31.061,37.505-52.354,49.94C194.778,235.557,186.689,240.16,178.49,244.881z"/>
	<path fill-rule="evenodd" clip-rule="evenodd" d="M186.52,54.532c10.925,0.995,21.977,2,33.199,3.022c0,3.534,0,6.609,0,10.063
		c-10.986,0.949-21.71,1.875-32.693,2.822c0,11.962,0,23.682,0,36.004c-5.652,0-11.114,0.177-16.541-0.183
		c-0.853-0.057-2.206-2.552-2.202-3.917c0.025-8.662,0.375-17.323,0.597-25.985c0.047-1.814,0.007-3.629,0.007-6.062
		c-11.068-0.989-21.927-1.958-32.688-2.92c-0.266-0.817-0.509-1.272-0.554-1.747c-0.786-8.188-0.783-8.212,7.313-8.942
		c7.466-0.672,14.953-1.148,22.391-2.042c1.537-0.185,3.566-1.521,4.189-2.871c1.038-2.248-0.442-3.672-2.744-4.856
		c-11.256-5.788-16.389-17.834-12.826-29.42c3.433-11.165,14.479-18.507,26.157-17.387c11.865,1.138,21.68,10.83,22.365,23.15
		c0.57,10.263-3.741,18.637-13.04,23.502C185.786,48.682,185.111,50.721,186.52,54.532z M177.788,17.209
		c-3.938-0.029-7.555,3.305-7.648,7.052c-0.1,3.958,3.56,7.662,7.59,7.684c3.898,0.021,7.559-3.336,7.688-7.053
		C185.553,20.989,181.83,17.239,177.788,17.209z"/>
</g>
<path fill-rule="evenodd" clip-rule="evenodd" fill="#FFFFFF" d="M22.804,481.89c1.436-0.407,2.873-0.814,4.527-1.284
	c0-10.871,0-21.807,0-32.991c-1.501-0.359-2.996-0.717-4.491-1.074c0.003-0.295,0.006-0.589,0.01-0.884c5.04,0,10.079,0,15.118,0
	c0.099,0.214,0.198,0.427,0.297,0.641c-1.476,0.437-2.953,0.872-4.618,1.364c0,10.895,0,21.836,0,33.008
	c1.347,0.372,2.688,0.742,4.028,1.112c-0.018,0.275-0.035,0.55-0.053,0.825c-4.886,0-9.772,0-14.659,0
	C22.911,482.367,22.857,482.129,22.804,481.89z"/>
</svg>
